<svg xmlns="http://www.w3.org/2000/svg" enable-background="new 0 0 500 421" viewBox="0 0 500 421" id="lost-business-man-talking-with-phone-and-asking-for-help"><path fill="#2a94f4" d="M227.121 341.454s7.318-49.475 51.657-57.083c44.338-7.604 38.975-70.244 99.555-67.754 60.581 2.495 48.097 60.773 72.204 73.86 24.106 13.091 35.298 50.977 35.298 50.977H227.121z"></path><path fill="#2a94f4" d="M234.693 341.454s0-40.117-47.544-54.245c-47.545-14.127-36.225-87.711-95.657-76.391-59.431 11.32-30.564 86.6-53.77 103.014-23.206 16.414-18.113 27.621-18.113 27.621h215.084z"></path><path fill="#d3d3d3" d="m467.594 341.673-1.796.032 32.58-116.783c10.166 4.083-30.784 116.751-30.784 116.751zM455.79 341.879l-31.057-88.793c8.048-.392 18.457 34.324 23.304 52.33 1.631 6.498 2.709 10.532 2.709 10.532s-1.016-4.245-2.709-10.532c-6.522-26.012-21.913-91.674-12.709-97.904l24.242 134.302-3.78.065zM463.415 341.746l2.768-158.633c11.217 7.592 1.411 137.736 1.411 137.736s19.077-93.503 29.728-96.002l-32.607 116.875-1.3.024z"></path><path fill="#9dadec" d="M448.036 305.416c1.694 6.286 2.709 10.532 2.709 10.532s-1.077-4.034-2.709-10.532z"></path><path fill="#d3d3d3" d="m460.624 341.796-24.31-134.68c12.716-2.211 24.344 113.733 24.344 113.733s-8.425-138.091 4.459-138.091c.011 0 .021.004.033.004l-2.775 159.003-1.751.031zM451.242 341.956s-38.653-82.637-27.751-88.526c.075-.04.151-.063.226-.097l30.977 88.566-3.452.057z"></path><path fill="#cce9ff" d="m464.714 341.721 32.607-116.875c.341-.083.673-.07.996.043.022.006.039.026.061.032l-32.58 116.783-1.084.017zM462.375 341.764l2.775-159.003c.363.007.707.13 1.034.351l-2.768 158.633-1.041.019zM459.57 341.815l-24.242-134.302c.175-.117.358-.216.552-.292.145-.054.289-.076.434-.104l24.31 134.68-1.054.018zM454.694 341.899l-30.977-88.566c.334-.149.673-.23 1.016-.246l31.057 88.793-1.096.019z"></path><path fill="#d3d3d3" d="m44.864 341.796-24.309-134.68c12.716-2.209 24.344 113.733 24.344 113.733s-8.424-138.091 4.46-138.091c.011 0 .021.004.032.004l-2.773 159.003-1.754.031zM40.03 341.879 8.975 253.086c8.046-.394 18.455 34.324 23.305 52.33 1.63 6.498 2.707 10.532 2.707 10.532s-1.015-4.245-2.707-10.532c-6.523-26.012-21.914-91.677-12.709-97.904l24.242 134.302-3.783.065z"></path><path fill="#9dadec" d="M32.28 305.416c1.693 6.286 2.707 10.532 2.707 10.532s-1.077-4.034-2.707-10.532z"></path><path fill="#d3d3d3" d="M35.483 341.956S-3.168 259.319 7.734 253.43c.075-.04.15-.063.225-.099l30.979 88.568-3.455.057zM51.836 341.673l-1.796.032 32.58-116.783c10.165 4.083-30.784 116.751-30.784 116.751zM47.658 341.746l2.769-158.633c11.216 7.592 1.41 137.736 1.41 137.736s19.076-93.503 29.727-96.002L48.957 341.721l-1.299.025z"></path><path fill="#cce9ff" d="m48.957 341.721 32.607-116.875c.341-.083.673-.07.995.043.022.006.04.026.062.032l-32.58 116.783-1.084.017zM46.617 341.764l2.773-159.003c.364.007.708.13 1.036.351l-2.769 158.633-1.04.019zM43.812 341.815 19.571 207.512a2.86 2.86 0 0 1 .552-.292 2.34 2.34 0 0 1 .432-.104l24.309 134.68-1.052.019zM38.938 341.899 7.959 253.331a2.815 2.815 0 0 1 1.016-.245l31.055 88.793-1.092.02z"></path><path fill="#0b4870" d="M429.222 234.977 404.1 340.811l-2.004-.017-6.162-31.055c-.313-12.541 1.76-48.855 33.288-74.762zM429.643 341.032l-11.117-.094 46.082-51.974c-11.542 41.046-34.965 52.068-34.965 52.068zM464.353 287.687l-47.206 53.239-2.933-.029 14.594-29.883c5.471-8.41 17.084-21.988 35.545-23.327zM428.58 309.111l-15.518 31.778-7.897-.069 24.938-105.052c11.529 28.88 3.644 59.032-1.523 73.343zM383.656 340.634s-35.464-13.713-36.092-67.769l46.892 67.863-10.8-.094zM395.046 310.605l5.988 30.179-5.306-.044-47.781-69.152c33.762 14.125 44.106 31.6 47.099 39.017z"></path><path fill="#2a94f4" d="M464.99 287.631c-.122.455-.255.886-.382 1.333l-46.082 51.974-1.379-.012 47.206-53.239c.214-.015.421-.043.637-.056zM429.643 234.627c.16.379.308.761.459 1.141L405.165 340.82l-1.066-.009 25.122-105.834c.144-.114.28-.233.422-.35zM347.946 271.587l47.781 69.152-1.272-.013-46.892-67.863c-.006-.481-.014-.959-.014-1.45.136.058.262.119.397.174z"></path><path fill="#577bc2" d="M425.431 316.894c-.222.479-.348.734-.348.734s.116-.262.348-.734z"></path><path fill="#577bc2" d="M425.431 316.894c-.232.472-.348.734-.348.734s.126-.254.348-.734c.523-1.065 1.639-3.209 3.377-5.88l-14.594 29.883-1.152-.009 15.518-31.778c-1.391 3.855-2.586 6.563-3.149 7.784zM396.198 314.209s-.193-1.626-.264-4.47l6.162 31.055-1.062-.01-5.988-30.179c.915 2.264 1.152 3.604 1.152 3.604z"></path><path fill="#0b4870" d="m91.275 318.088-5.529 24.355h-2.74L66.928 233.157c28.181 28.395 26.811 67.227 24.347 84.931zM129.264 268.077l-41.162 74.366H86.81l6.1-26.867c4.83-13.946 15.502-36.447 36.354-47.499zM95.447 342.443h-6.158l40.836-73.775c-.418 57.126-34.678 73.775-34.678 73.775zM63.238 342.443s-28.031-13.075-40.895-56.614l45.489 56.614h-4.594zM62.595 319.651l8.513 22.792h-1.944l-46.596-57.992c22.15 6.92 34.336 24.285 40.027 35.2zM66.055 234.376l15.899 108.067H72.22l-8.526-22.828c-4.698-16.827-11.838-53.229 2.361-85.239z"></path><path fill="#2a94f4" d="M130.135 267.617c0 .353-.007.7-.009 1.051L89.29 342.443h-1.188l41.162-74.366c.288-.154.578-.31.871-.46zM66.706 232.929c.076.076.146.155.222.228l16.078 109.286h-1.052L66.055 234.376c.214-.481.428-.964.651-1.447zM22.568 284.451l46.596 57.992h-1.332l-45.489-56.614c-.16-.54-.327-1.064-.482-1.61.24.071.47.156.707.232z"></path><path fill="#577bc2" d="M90.087 325.01c-.405 1.633-.586 2.566-.586 2.566s.241-.906.586-2.566a111.577 111.577 0 0 1 2.823-9.434l-6.1 26.867h-1.064l5.529-24.355c-.41 2.938-.849 5.291-1.188 6.922z"></path><path fill="#577bc2" d="M90.087 325.01c-.345 1.66-.586 2.566-.586 2.566s.181-.933.586-2.566zM66.048 327.231c.412 1.194.658 1.831.658 1.831s-.215-.673-.658-1.831a134.206 134.206 0 0 1-2.354-7.616l8.526 22.828h-1.111l-8.513-22.792c1.698 3.253 2.817 5.924 3.452 7.58z"></path><path fill="#577bc2" d="M66.048 327.231c.444 1.158.658 1.831.658 1.831s-.247-.637-.658-1.831z"></path><path fill="#cfe6fd" d="M249.807 311.907c175.807 0 249.807 29.027 249.807 29.027s-74 12.199-249.807 12.199C73.999 353.133 0 340.934 0 340.934s73.999-29.027 249.807-29.027z"></path><path fill="#0b4870" d="M217.561 332.535s-6.351 3.919-11.22 4.334c-4.869.415-7.599 1.039-7.955 4.245-.356 3.205 13.12 2.167 15.435 1.692 2.316-.475 12.823.415 14.249-.475 1.425-.89-.119-9.379-.713-10.626-.593-1.248-9.796.83-9.796.83z"></path><path fill="#d3d3d3" d="m217.849 329.587-.019 2.933s6.833 1.019 8.888-.806l.263-2.74-9.132.613z"></path><path fill="#0b4870" d="M250.508 331.628s-3.888 4.595-7.937 5.649c-4.049 1.055-8.562 3.037-8.52 5.609.043 2.573 13.328 2.826 18.136.507 4.808-2.32 7.592-2.921 8.309-4.876.717-1.958-1.128-7.081-1.095-7.698.041-.763-8.893.809-8.893.809z"></path><path fill="#d3d3d3" d="M250.426 329.409s.058 2.624.139 2.665c.079.043 8.179.817 8.709-.809.464-1.423.405-3.107.405-3.107l-9.253 1.251z"></path><path fill="#0b4870" d="M229.19 221.716s-20.392 34.42-24.702 42.591c-3.991 7.573 2.251 24.056 3.212 29.515 1.003 5.704 10.501 33.849 9.932 35.841-.57 1.992 10.485-.69 10.485-.69s-6.424-49.934-7.088-54.964c-.664-5.03 22.037-36.557 23.367-34.565 1.327 1.992 2.096 37.024 2.76 42.525.664 5.505 2.818 47.269 2.818 47.269s9.867 1.615 12.049-1.896c0 0 .569-43.935.665-47.826.094-3.892 5.271-42.463.475-60.076-2.537-9.304-33.973 2.276-33.973 2.276z"></path><path fill="#514e58" d="m253.156 133.008-8.943 8.423-.107.106-3.394 3.195-1.663-1.623-3.766-3.647-.439-.439 1.463-1.61 1.105-1.211.319-.359 1.398-1.543.319-.346 1.331-1.477v-.013l4.991-5.47.292-.321.839.76.386.332 5.869 5.243z"></path><path fill="#3e3b42" d="m241.057 143.507 10.767-10.144-6.131-5.486-9.711 10.688z"></path><path fill="#f1b99e" d="M233.651 144.921s1.874-.449 1.321-2.695c-.552-2.243.312-2.758.312-2.758l6.527 6.326s-3.17 3.057-4.132 3.179c-.962.12-4.995-2.828-4.028-4.052z"></path><path fill="#f1b99e" d="M241.811 145.794s3.971-2.542 4.345-2.923c.375-.379 2.151-2.077 2.878-3.082.727-1.006-2.171-.758-3.012.285-.84 1.045-1.594 1.34-2.178 1.572-.583.229-4.101.437-4.799 1.469-.696 1.032 2.766 2.679 2.766 2.679zM236.512 138.107s.474.621.854-.099c.38-.721.349-2.38-.615-1.981-.967.399-.239 2.08-.239 2.08zM237.735 135.91s.166 1.227.766.674c.598-.552 1.198-2.606.156-2.553-1.045.051-.922 1.879-.922 1.879zM239.442 134.119s-.003 1.48.691 1.056c.522-.322 1.272-2.986.23-2.934-1.043.052-.921 1.878-.921 1.878zM295.212 220.086s2.317 1.643 3.708 1.343c1.392-.302 3.348-.054 3.958.056.816.145 3.608-.296 3.296.686-.313.982-4.593.93-5.514 1.088-.921.158 1.927 2.596 2.017 3.468.091.87-5.128 5.526-6.846 3.617-1.718-1.908-2.049-5.156-2.43-5.428-.382-.272-1.316-1.337-1.316-1.337l3.127-3.493z"></path><path fill="#f1b99e" d="M302.403 226.178s4.794 6.216 4.704 6.922c-.089.704-.501.967-.977.409-.477-.563-4.837-5.863-4.837-5.863s4.217 8.396 4.28 8.973c.036.338-.735.886-1.023.611-.288-.273-5.015-8.313-5.015-8.313s3.922 7.845 3.817 8.36c-.093.449-.917.804-1.253.245-.337-.557-4.45-7.6-4.45-7.6s2.444 5.921 2.082 6.339c-.222.255-.867.754-1.444-.796-.576-1.553-2.37-5.035-2.37-5.035l6.486-4.252z"></path><path fill="#ffe3ca" d="M298.666 220.878s-4.807 3.799-6.706 3.291c-1.898-.507-17.715-22.265-18.979-26.064-1.264-3.796-2.658-15.057-2.658-15.057s-4.083 11.31-4.622 16.752c-.54 5.439-2.762 15.405-2.762 15.405l-32.429 1.965s-1.267-1.984-.717-6.199c.547-4.219 2.03-14.277 1.08-19.686-.948-5.407-.127-14.71-.127-14.71s-13.564 4.069-15.145 4.511c-1.583.444-5.693-2.024-6.77-4.556-1.074-2.529 24.672-33.023 24.672-33.023l5.934 5.088-7.313 12.508c.246-.166 1.786-.78 3.852-1.57 5.045-1.925 13.218-4.892 13.218-4.892s11.514-.19 12.4-.061c.885.126 12.273 5.694 13.917 7.085 1.647 1.39 6.2 30.113 7.085 32.011.886 1.898 16.07 27.202 16.07 27.202z"></path><path fill="#0e538c" d="M230.51 217.168s-.809.827-1.32 4.549c0 0 30.651-1.134 33.972-2.274 0 0 .452-4.114-.224-4.238-.742-.139-32.428 1.963-32.428 1.963z"></path><path fill="#f1b99e" d="M261.594 154.579c-.317 1.391-10.945 9.551-10.945 9.551s-2.415-9.099-1.455-9.49c.376-.152.58-.864.69-1.669.103-.769.121-1.623.119-2.168 0-.338-.009-.557-.009-.557s1.428-1.285 3.237-2.81c3.161-2.668 7.485-6.059 7.374-4.583a1.316 1.316 0 0 1-.055.278c-.973 3.269 1.044 11.448 1.044 11.448z"></path><path fill="#f2f2f2" d="m249.491 154.359-3.013 1.358 1.324 12.146 2.846-3.732zM261.446 153.951l-10.798 10.18 1.395 4.133 12.939-12.278z"></path><path fill="#0e538c" d="M255.941 215.384s.332 4.232.303 5.326l1.428-.169s-.036-4.453-.206-5.213l-1.525.056zM233.082 216.882s-.834 3.756-.961 5.19l1.502-.074s.681-4.72.89-5.203l-1.431.087z"></path><path fill="#fcd2b1" d="M242.264 216.167c-.007-.037-.019-1.337.122-6.786.057-2.214.245-8.246 1.021-11.87 1.149-5.356 1.229-7.848.815-12.464-.697-7.752 5.314-17.279 5.342-17.382l.776.2c-.026.102-5.707 9.46-5.023 17.07.425 4.74.272 7.699-.888 13.112-.736 3.432-.845 9.145-.9 11.286-.136 5.282-.202 6.679-.195 6.716l-1.07.118z"></path><path fill="#ffbe55" d="M251.333 168.152s-.811 14.77-10.365 16.92c-9.553 2.151-22.268 10.438-26.001 15.057l-4.556 6.01v-6.707s1.899-11.024 30.178-15.603c0 0 8.113-.535 7.817-16.035 0 .001 2.982-.287 2.927.358z"></path><path fill="#a77860" d="m258.619 146.278-.001.001c-.021.024-.458.581-1.193 1.368-1.558 1.669-4.453 4.385-7.541 5.324.103-.769.121-1.623.119-2.168a4.5 4.5 0 0 1-.908-.183c.935-1.367 2.24-2.778 2.24-2.778l1.896-.405 5.388-1.159z"></path><path fill="#f1b99e" d="M262.885 133.566c-.253 1.251-.945 2.449-1.717 3.328.306 1.915.014 4.91.014 4.91-.2.361-.386.72-.572 1.052-.945 1.676-1.73 2.941-1.996 3.421 0 .013-.014.026-.027.04-.16.318-.585.799-1.158 1.331-1.65 1.516-4.658 3.459-7.426 3.153a3.555 3.555 0 0 1-.904-.186c-1.105-.334-2.383-.958-3.009-2.436a28.862 28.862 0 0 1-1.397-4.258v-.014a28.49 28.49 0 0 1-.466-2.422c0-.026-.013-.039-.013-.053-.04-.279-.067-.545-.094-.811-.731-6.388 1.092-11.085 1.771-12.564.146-.319.24-.492.24-.492s.279-.053.771-.132l.386.332c2.156.2 4.312-.493 8.212.08 4.605.664.079 8.677.079 8.677l2.583-.253c0-.704.106-1.503.239-2.236.438-2.449 5.003-3.049 4.484-.467z"></path><path fill="#515154" d="m246.901 127.432.386.332a6.11 6.11 0 0 1-1.157-.201s-.147-.212-.359-.571l.292-.321.838.761zM262.885 133.566c-.253 1.251-.945 2.449-1.717 3.328-.106-.693-.306-1.238-.612-1.464-1.185-.839-2.395.837-2.395.837 0-.704.106-1.503.239-2.236.439-2.447 5.004-3.047 4.485-.465z"></path><path fill="#f1b99e" d="M262.885 133.566c-.253 1.251-.945 2.449-1.717 3.328-.799.918-1.677 1.476-2.196 1.397-.613-.106-.811-.958-.811-2.024 0-.704.106-1.503.239-2.236.439-2.447 5.004-3.047 4.485-.465z"></path><path fill="#fcd2b1" d="M248.012 167.587s1.816 1.567 3.895.276c0 0-.784-3.605-1.259-3.733-.475-.124-2.868 2.802-2.636 3.457z"></path><path fill="#ffbe55" d="M246.053 215.914s-4.512.177-6.018.428l.192 5.001 6.109-.364-.283-5.065z"></path><path fill="#d5bbaf" d="m235.975 159.533-10.188 11.717 6.336-10.147c.247-.166 1.787-.78 3.852-1.57z"></path><path fill="#cce9ff" d="M252.837 118.528a5.736 5.736 0 0 1-.094.533c-.185 0-.359.013-.518.013.185-.187.385-.372.612-.546z"></path><path fill="#cce9ff" d="M252.837 118.528a5.736 5.736 0 0 1-.094.533c-.185 0-.359.013-.518.013.185-.187.385-.372.612-.546z"></path><path fill="#0b4870" d="M261.208 141.764c-.014.027-.027.04-.027.04s.292-2.994-.014-4.91c.772-.879 1.464-2.077 1.717-3.328.519-2.582-4.046-1.982-4.485.465-.133.733-.239 1.531-.239 2.236l-2.583.253s4.526-8.013-.079-8.677c-3.9-.573-6.055.12-8.212-.08l-.386-.332-.839-.76-.292.321c-.639-1.065-1.943-3.46-2.05-5.563 0-.066-.014-.146 0-.212-.027-.374-.027-.707-.027-1.012-.027-.04-.04-.08-.053-.12.24-2.555 3.287-4.577 7.014-4.577.572 0 1.144.053 1.677.146a4.92 4.92 0 0 1 .506 2.874 6.072 6.072 0 0 0-.612.545c.159 0 .333-.013.518-.013.041-.173.067-.345.094-.533.798-.613 1.823-1.091 3.007-1.397a11.234 11.234 0 0 1 2.822-.346c4.192 0 7.599 2.183 7.599 4.871v.014c.532.744.972 1.889 1.118 3.646.706 8.397-5.695 15.917-6.174 16.449z"></path><path fill="#0b4870" d="M243.694 120.205c0 .305 0 .638.027 1.012a2.613 2.613 0 0 1-.107-.786c0-.119 0-.226.026-.346.014.04.027.08.054.12zM252.225 119.073c.185-.186.385-.371.612-.545a5.736 5.736 0 0 1-.094.533c-.185-.001-.359.012-.518.012z"></path><path fill="#0b4870" d="M255.844 117.131c-1.184.306-2.209.784-3.007 1.397a4.917 4.917 0 0 0-.506-2.874c1.384.239 2.595.758 3.513 1.477z"></path><path fill="#ffbe55" d="M167.082 127.327c3.049.363 5.332 1.997 6.85 4.901 1.536 2.938 1.835 5.631.899 8.075-.936 2.446-2.777 4.58-5.522 6.404l2.135 4.947-6.179 3.23-4.304-7.492c3.032-2.014 5.005-3.832 5.923-5.449.916-1.62.96-3.222.13-4.809-.688-1.317-1.67-2.104-2.944-2.363-1.274-.258-2.791.073-4.546.99-1.756.917-2.923 2.163-3.499 3.731-.577 1.57-.457 3.302.362 5.196l-8.015.708c-.973-2.931-.769-5.768.614-8.512 1.381-2.744 4.032-5.14 7.949-7.188 3.714-1.941 7.096-2.729 10.147-2.369zm6.741 28.629c1.146.303 2.038 1.062 2.674 2.279.635 1.217.751 2.382.345 3.497-.407 1.115-1.285 2.025-2.635 2.731-1.351.707-2.591.903-3.721.593-1.131-.312-2.014-1.075-2.649-2.292-.635-1.216-.758-2.377-.371-3.484.389-1.106 1.26-2.013 2.611-2.72 1.349-.705 2.598-.907 3.746-.604zM341.244 122.342c2.486 2.999 3.159 6.498 2.016 10.496-1.155 4.045-3.233 6.783-6.231 8.214-2.999 1.431-6.558 1.783-10.675 1.058l-2.362 6.418-8.508-2.432 2.591-10.649c4.549.799 7.953.852 10.212.165 2.257-.687 3.699-2.124 4.324-4.31.518-1.812.303-3.395-.643-4.746-.946-1.353-2.629-2.373-5.045-3.064-2.418-.691-4.579-.565-6.481.375-1.903.939-3.306 2.638-4.209 5.094l-7.99-6.356c1.667-3.547 4.335-5.976 8.005-7.292 3.668-1.314 8.2-1.201 13.594.341 5.113 1.46 8.913 3.691 11.402 6.688zm-18.825 32.222c.788 1.282.945 2.761.466 4.434-.478 1.673-1.391 2.845-2.739 3.517-1.349.67-2.954.74-4.813.209-1.859-.533-3.172-1.436-3.939-2.711-.767-1.274-.912-2.75-.434-4.423.478-1.673 1.38-2.848 2.705-3.528 1.325-.676 2.917-.75 4.777-.218 1.86.531 3.185 1.439 3.977 2.72zM247.117 71.369c1.097 1.323 1.395 2.866.891 4.629-.51 1.785-1.427 2.993-2.75 3.624-1.323.633-2.894.787-4.71.468l-1.042 2.83-3.753-1.073 1.144-4.698c2.007.354 3.508.376 4.505.073.995-.302 1.632-.936 1.907-1.901.228-.8.134-1.497-.284-2.094-.418-.595-1.159-1.046-2.224-1.351-1.069-.305-2.02-.249-2.86.165-.84.414-1.46 1.164-1.856 2.249l-3.526-2.805c.736-1.564 1.914-2.636 3.531-3.216 1.618-.58 3.618-.531 5.999.15 2.255.643 3.931 1.626 5.028 2.95zm-8.306 14.214c.35.565.417 1.218.206 1.957-.21.739-.612 1.255-1.208 1.55-.595.296-1.303.328-2.123.093-.82-.235-1.4-.633-1.738-1.197-.339-.561-.402-1.212-.192-1.951.211-.737.609-1.257 1.194-1.556.585-.298 1.287-.331 2.108-.096.821.236 1.405.635 1.753 1.2z"></path></svg>