<svg xmlns="http://www.w3.org/2000/svg" enable-background="new 0 0 500 421" viewBox="0 0 500 421" id="virtual-assistant"><path fill="#cce9ff" d="M282.929 58.162c6.118 2.655 11.852 5.597 17.049 8.732 18.172 10.954 32.79 26.902 50.647 37.889 16.862 10.374 37.454 12.896 56.749 14.63 33.633 3.023 103.781 32.013 91.115 85.744-4.608 19.554-20.858 32.834-29.178 50.541-8.85 18.836-7.921 42.329-22.012 58.658-6.199 7.18-14.756 11.922-23.541 15.514-58.465 23.898-124.121 22.787-186.114 20.153-48.931-2.079-127.521 8.91-170.5-17.924-21.338-13.323-10.242-49.742-25.007-69.303-12.407-16.437-29.293-27.233-37.588-47.808-14.116-35.01 6.005-80.571 41.235-92.999 22.015-7.766 45.338-11.324 67.1-19.853 22.483-8.815 31.146-22.018 48.292-37.645 30.997-28.246 83.753-22.825 121.753-6.329z"></path><path fill="#d3d3d3" d="M337.076 336.726H167.365V230.59c0-2.006 1.596-3.631 3.564-3.631h162.583c1.969 0 3.564 1.625 3.564 3.631v106.136z"></path><path fill="#f2f2f2" d="M173.577 234.649h157.29v93.595h-157.29z"></path><path fill="#d3d3d3" d="M140.374 368.32c-1.56 2.04 1.421 8.133 6.096 8.133h215.129c4.672 0 7.615-6.093 5.826-8.133H140.374z"></path><path fill="#f2f2f2" d="M366.825 367.205c1.789 2.037-.554 3.69-5.225 3.69H146.471c-4.675 0-7.199-1.653-5.639-3.69l22.025-28.797c1.56-2.039 5.642-3.691 9.12-3.691h160.051c3.474 0 7.746 1.652 9.535 3.691 8.418 9.602 16.842 19.196 25.262 28.797z"></path><path fill="#d3d3d3" d="M188.61 344.43h-7.266c1.028-1.522 1.543-2.285 2.569-3.808h6.979l-2.282 3.808zM198.027 344.43h-7.266c.88-1.522 1.32-2.285 2.198-3.808h6.977l-1.909 3.808zM195.018 339.893h-10.607l.958-1.421h10.446l-.797 1.421zM207.45 339.894l-10.61-.001.767-1.421h10.446c-.24.569-.363.853-.603 1.422zM219.883 339.893h-10.611l.574-1.421h10.451l-.414 1.421zM232.314 339.893h-10.608l.381-1.421h10.448c-.086.569-.131.853-.221 1.421zM244.748 339.893h-10.611l.193-1.421h10.445l-.027 1.421zM257.18 339.893h-10.608v-1.421h10.445c.066.569.095.853.163 1.421zM269.614 339.893h-10.61l-.194-1.421h10.449c.14.569.212.853.355 1.421zM282.048 339.893h-10.611l-.384-1.421h10.446c.221.569.33.853.549 1.421zM294.481 339.893h-10.61c-.233-.568-.348-.852-.58-1.421h10.451l.739 1.421zM306.911 339.893h-10.608c-.307-.568-.462-.852-.767-1.421h10.443c.372.569.558.853.932 1.421zM320.784 339.893h-12.048l-.961-1.421h11.864c.457.569.688.853 1.145 1.421zM207.44 344.43h-7.264c.73-1.522 1.097-2.284 1.825-3.806l6.977-.002c-.614 1.525-.922 2.284-1.538 3.808zM216.855 344.43h-7.265c.583-1.522.873-2.285 1.457-3.808l6.977.002-1.169 3.806zM226.272 344.43h-7.264c.434-1.524.652-2.284 1.084-3.808h6.977c-.318 1.523-.48 2.286-.797 3.808zM235.687 344.43h-7.264c.284-1.522.424-2.287.711-3.808h6.979c-.172 1.523-.259 2.286-.426 3.808zM245.097 344.43h-7.258l.34-3.808h6.975c-.021 1.523-.032 2.286-.057 3.808zM254.517 344.43h-7.264l-.028-3.808h6.975c.128 1.523.191 2.286.317 3.808zM263.931 344.43h-7.261l-.398-3.808h6.972c.276 1.523.412 2.286.687 3.808zM273.344 344.43h-7.262c-.307-1.522-.462-2.285-.771-3.808h6.977c.421 1.523.633 2.286 1.056 3.808zM185.567 349.506h-7.643l2.564-3.807h7.361l-2.282 3.807zM195.48 349.506h-7.646c.88-1.522 1.32-2.284 2.198-3.807h7.361c-.767 1.522-1.151 2.284-1.913 3.807zM205.389 349.506h-7.646c.73-1.522 1.093-2.284 1.825-3.807h7.358c-.615 1.523-.924 2.284-1.537 3.807zM215.299 349.506h-7.648c.582-1.522.874-2.284 1.454-3.807h7.362c-.468 1.523-.702 2.284-1.168 3.807zM225.21 349.506h-7.645c.434-1.522.649-2.284 1.082-3.804 2.945 0 4.414-.003 7.359-.003-.321 1.523-.478 2.284-.796 3.807zM235.116 349.506h-7.645l.713-3.807h7.358c-.169 1.522-.256 2.284-.426 3.807zM245.024 349.506h-7.642l.342-3.807h7.354l-.054 3.807zM254.936 349.506h-7.645l-.028-3.807h7.358c.125 1.523.191 2.284.315 3.807zM264.844 349.506h-7.641c-.161-1.522-.242-2.284-.399-3.807h7.354l.686 3.807zM274.753 349.506h-7.643c-.309-1.522-.465-2.284-.772-3.807h7.358l1.057 3.807zM182.527 354.582H174.5c1.025-1.522 1.541-2.285 2.568-3.806l7.741-.002c-.913 1.521-1.371 2.285-2.282 3.808zM192.931 354.582h-8.025l2.195-3.806h7.743c-.765 1.52-1.149 2.283-1.913 3.806zM203.337 354.582h-8.029l1.825-3.806h7.741l-1.537 3.806zM213.74 354.582h-8.03l1.455-3.806h7.743l-1.168 3.806zM224.143 354.582h-8.024c.432-1.522.652-2.285 1.082-3.806h7.74c-.316 1.52-.477 2.283-.798 3.806zM234.545 354.582h-8.025c.284-1.522.429-2.285.714-3.806h7.741l-.43 3.806zM244.947 354.582h-8.021l.34-3.806h7.737c-.02 1.52-.032 2.283-.056 3.806zM255.358 354.582h-8.028c-.009-1.522-.016-2.285-.028-3.806h7.74c.127 1.52.188 2.283.316 3.806zM265.76 354.582h-8.022c-.161-1.522-.242-2.285-.401-3.806h7.737c.274 1.52.413 2.283.686 3.806zM276.161 354.582h-8.027c-.306-1.522-.46-2.285-.769-3.806h7.74l1.056 3.806zM179.485 359.655h-8.409c1.026-1.522 1.543-2.283 2.569-3.804h8.12a2247.74 2247.74 0 0 1-2.28 3.804zM190.385 359.655h-8.407l2.198-3.804h8.122c-.765 1.521-1.15 2.282-1.913 3.804zM201.282 359.655h-8.407c.73-1.522 1.096-2.283 1.828-3.804h8.119c-.615 1.521-.922 2.282-1.54 3.804zM212.145 359.776h-8.422c.604-1.569.902-2.355 1.502-3.924h8.125c-.482 1.568-.722 2.355-1.205 3.924zM277.573 359.655h-62.901c.431-1.522.647-2.283 1.081-3.804h60.763l1.057 3.804zM231.078 368.018h47.716l-4.018-6.484h-39.9l-3.798 6.484zM281.864 344.43H274.6c-.445-1.522-.664-2.285-1.106-3.808h6.977c.557 1.521.833 2.286 1.393 3.808zM283.72 349.506h-7.648c-.441-1.522-.661-2.284-1.104-3.807h7.362c.554 1.523.833 2.284 1.39 3.807zM285.576 354.582h-8.028c-.443-1.522-.661-2.285-1.104-3.806h7.741c.556 1.52.832 2.283 1.391 3.806zM287.432 359.655h-8.409l-1.106-3.804h8.122l1.393 3.804zM290.379 344.43h-7.264c-.577-1.522-.867-2.285-1.441-3.808h6.978c.689 1.523 1.036 2.286 1.727 3.808zM292.684 349.506h-7.646c-.577-1.522-.867-2.284-1.441-3.807h7.359c.689 1.522 1.037 2.284 1.728 3.807zM294.986 354.582h-8.027l-1.443-3.806h7.741c.694 1.52 1.037 2.283 1.729 3.806zM297.289 359.655h-8.41c-.574-1.522-.864-2.283-1.438-3.804h8.12c.692 1.521 1.035 2.282 1.728 3.804zM298.895 344.43h-7.263l-1.778-3.808h6.979c.825 1.523 1.239 2.286 2.062 3.808zM301.645 349.506H294l-1.778-3.807h7.361c.824 1.523 1.239 2.284 2.062 3.807zM304.398 354.582h-8.028c-.711-1.522-1.065-2.285-1.778-3.806h7.743l2.063 3.806zM307.147 359.655h-8.409c-.71-1.522-1.064-2.283-1.777-3.804h8.123l2.063 3.804zM307.41 344.43h-7.263l-2.111-3.808h6.975c.963 1.523 1.44 2.286 2.399 3.808zM310.609 349.506h-7.645l-2.112-3.807h7.359c.959 1.523 1.441 2.284 2.398 3.807zM313.807 354.582h-8.025c-.845-1.522-1.266-2.285-2.113-3.806h7.741c.96 1.52 1.439 2.283 2.397 3.806zM317.006 359.655h-8.409a2030.7 2030.7 0 0 0-2.113-3.804h8.124c.958 1.521 1.437 2.282 2.398 3.804zM315.93 344.43h-7.266c-.981-1.522-1.471-2.285-2.451-3.808h6.98c1.094 1.523 1.64 2.286 2.737 3.808zM319.572 349.506h-7.646c-.98-1.522-1.469-2.284-2.446-3.807h7.359c1.094 1.523 1.641 2.284 2.733 3.807zM323.219 354.582h-8.03c-.978-1.522-1.466-2.285-2.446-3.806h7.743c1.095 1.52 1.64 2.283 2.733 3.806zM326.863 359.655h-8.411l-2.447-3.804h8.125l2.733 3.804zM324.442 344.43h-7.262c-1.114-1.522-1.669-2.285-2.786-3.808h6.98c1.227 1.523 1.84 2.286 3.068 3.808zM328.535 349.506h-7.646c-1.11-1.522-1.669-2.284-2.781-3.807h7.358l3.069 3.807zM332.628 354.582h-8.027c-1.114-1.522-1.669-2.285-2.783-3.806h7.741c1.228 1.52 1.841 2.283 3.069 3.806zM336.721 359.655h-8.411l-2.781-3.804h8.122c1.228 1.521 1.84 2.282 3.07 3.804z" opacity=".5"></path><path fill="#0b4870" d="M292.497 328.219h-74.888c.535-2.174 1.025-3.91 1.455-5.118a7.2 7.2 0 0 1 .912-1.744c1.327-1.88 3.599-3.479 6.526-4.831 3.494-1.616 7.916-2.886 12.764-3.893 5.151-1.056 10.77-1.817 16.241-2.368.37-.033.736-.072 1.106-.104 6.085-.568 11.931-.88 16.648-1.031 6.512-.225 10.902-.178 10.902-.178s.352.561.969 1.681c1.445 2.656 4.334 8.477 7.365 17.586z"></path><path fill="#ffe3ca" d="M235.13 206.023c-.142.96-.392 1.849-.746 2.705l.212-2.42c.179-.108.358-.178.534-.285z"></path><path fill="#eebea7" d="M274.799 202.43v.032c-.073-.032-.144-.069-.178-.069.072.001.105.037.178.037z"></path><path fill="#f1b99e" d="M351.656 253.497s4.626-4.288 3.709-7.505c-.777-2.73.396-5.788.688-7.057.396-1.681.555-7.138 1.809-6.841 2.123.516 1.633 9.227 1.894 11.084.262 1.855 5.887-4.358 7.804-4.683 1.922-.332 11.686 9.564 7.336 13.386-4.35 3.814-10.349 5.362-10.983 6.186-.633.824-3.614 3.088-3.614 3.088l-8.643-7.658z"></path><path fill="#f1b99e" d="M366.332 239.141s14.101-10.8 15.642-10.735c1.547.062 2.081.866.803 1.928-1.273 1.065-13.315 10.837-13.315 10.837s18.832-9.984 20.111-10.207c.742-.132 1.312 1.296.678 1.931-.63.628-18.155 11.654-18.155 11.654s17.599-9.292 18.721-9.16c.984.119 1.685 1.741.427 2.519-1.259.777-17.108 10.327-17.108 10.327s13.24-5.952 14.121-5.287c.535.412 1.299 1.316-2.16 2.744-3.466 1.43-11.003 5.995-11.003 5.995l-8.762-12.546z"></path><path fill="#ffbe55" d="M265.656 193.107v.96c-.075-.175-.144-.319-.178-.497-.073-.035-.073-.105-.073-.144.073-.104.143-.209.251-.319z"></path><path fill="#eebea7" d="M255.054 198.944c-.142.033-.323.033-.463.033v-.07c.14.037.321.037.463.037zM265.656 193.107v.286a5.958 5.958 0 0 0-.178.177c-.391.427-.82.817-1.246 1.21-.179.143-.32.283-.496.426.211-.211.46-.462.677-.675.32-.32.638-.711.992-1.105.073-.104.143-.209.251-.319z"></path><path fill="#f4c7b1" d="M273.802 180.835c-1.956 4.341-4.341 8.255-7.046 11.35-.353.426-.747.852-1.101 1.209v-.286c-.108.109-.178.215-.251.319-.354.394-.672.785-.992 1.105-.217.214-.466.464-.677.675-.075.037-.143.109-.214.179-.108.106-.214.214-.323.249a8.05 8.05 0 0 1-.889.675c-.39.285-.745.533-1.135.747a4.823 4.823 0 0 1-.285.179c-.359.211-.711.39-1.029.531a6.15 6.15 0 0 1-1 .428l-.034.036c-.284.072-.499.178-.749.249-.073.036-.14.072-.214.072-.246.07-.496.14-.747.178-.069 0-.105.034-.176.034h-.109c-.176.038-.388.073-.566.109-.179.034-.392.034-.569.034-.176.037-.359.037-.501.037h-.034c-.034.033-.07.033-.106 0-.142 0-.323 0-.463-.037v.07c-.212 0-.427-.033-.674-.07-.251-.034-.535-.07-.786-.105-.142-.038-.281-.038-.463-.072-.14-.038-.284-.038-.426-.108-.746-.178-1.455-.463-2.204-.855a6.16 6.16 0 0 1-.677-.388c-1.173-.676-2.313-1.637-3.488-2.848-.423-.424-.816-.924-1.243-1.424-1.814-2.277-3.626-5.298-5.3-9.14a93.46 93.46 0 0 1-1.922-4.662c.888 1.743-.661-14.517-.304-13.946-4.837-9.25-.016-1.637 1.696-6.224 10.705 4.517 31.514 12.309 31.514 4.41 0 0 .462 4.803.998 9.783.426 4.091.889 8.327 1.104 9.927-.001-.001.565-.891 1.385-2.42z"></path><path fill="#eebea7" d="M255.054 198.944c-.142.033-.323.033-.463.033v-.07c.14.037.321.037.463.037zM265.656 193.107v.286a5.958 5.958 0 0 0-.178.177c-.391.427-.82.817-1.246 1.21-.179.143-.32.283-.496.426.211-.211.46-.462.677-.675.32-.32.638-.711.992-1.105.073-.104.143-.209.251-.319z"></path><path fill="#ffbe55" d="M237.407 179.305c-2.848-5.621-7.436-16.363-6.617-26.539v-.037c-1.279-8.43 9.215-23.621 25.225-22.839 16.007-.782 26.504 14.409 25.222 22.839v.037c.495 6.154-.998 12.486-2.847 17.789 1.174-.039 2.31.104 3.449.496 6.37 2.1 9.357 10.389 6.654 18.465-2.667 8.11-10.033 12.947-16.4 10.849-2.954-.961-5.196-3.272-6.439-6.298v-.674c.354-.356.749-.783 1.101-1.209 2.705-3.095 5.09-7.009 7.046-11.35-.82 1.53-1.318 3.41-1.318 3.41-.215-1.598-.747-6.826-1.173-10.917-.537-4.98-.998-9.783-.998-9.783 0 7.9-20.809.107-31.514-4.41l-1.391 20.171z"></path><path fill="#a5735b" d="M265.656 193.107v.96c0 .677-.034 1.495 0 2.42-1.033 1.28-2.064 2.349-3.131 3.166-.359.285-.713.535-1.067.783a5.765 5.765 0 0 1-.855.533h-.034c-1.636.924-3.274 1.387-4.874 1.423h-.82c-.106 0-.211 0-.284-.036v-3.451c.14.037.321.037.463.037.036.033.072.033.106 0h.034c.181.033.324.033.501.033.214 0 .462-.033.675-.07.248-.034.535-.07.785-.105.14-.038.281-.038.462-.072.143-.038.284-.038.427-.108.747-.178 1.457-.463 2.201-.855.217-.104.468-.246.678-.388.781-.427 1.529-.999 2.276-1.745.109-.035.215-.143.323-.249.07-.07.139-.142.214-.179.211-.211.46-.462.677-.675.32-.32.638-.711.992-1.105.073-.102.143-.207.251-.317z"></path><path fill="#0e538c" d="M254.593 223.595v96.304l16.615-.71 13.662-.605-1.39-16.827-1.529-18.822a346.596 346.596 0 0 0-7.082 3.098c.641-7.436.925-14.266.499-19.853-1.672-20.777-4.268-37.71-6.297-48.774v-.036c.212-2.134-.073-4.518-.569-6.723a14.456 14.456 0 0 0-.284-1.352c-.143-.499-.247-.96-.39-1.423l-.323-1.066c-.07-.249-.178-.498-.246-.713a24.112 24.112 0 0 0-.928-2.561h-.069c.285 1.282 1.281 5.551 2.524 12.273v.037c-.814 3.557-3.414 5.549-6.617 6.654-.034 0-.103.033-.143.033-2.202.749-4.693 1.032-7.075 1.067-.107-.001-.25.036-.358-.001z"></path><path fill="#2a94f4" d="M292.55 253.554c.855 1.313 2.062 3.733 3.273 6.473-.176 3.024-.39 4.836-.39 4.836s-1.316 3.451-3.06 8.861c-.465 1.349-4.943 25.257-5.441 26.824-.108.284-.181.604-.285.889-1.636.816-1.271-.608-4.119.534-.85.354-1.778.71-2.739 1.135-.142.075-.318.144-.571.25-.284.107-.568.214-.853.356a359.07 359.07 0 0 0-5.654 2.491c.638-7.436 3.084-34.436 2.656-40.022-1.671-20.777-4.266-37.71-6.295-48.774v-.036c-.109-.533-.176-1.03-.284-1.529v-.037c-1.245-6.722-2.241-10.99-2.527-12.273h9.215v.073c2.56-.179 14.645-1.88 22.9 5.982-4.555-1.957-10.591-.186-12.616 1.061a10.888 10.888 0 0 0-2.246 1.707 11.394 11.394 0 0 0-2.488 3.38c-5.905 12.203 9.033 34.045 11.524 37.819z"></path><path fill="#2a94f4" d="M293.222 328.219h-22.896c.239-2.918.543-5.943.88-9.028.343-3.311.752-6.677 1.142-10.061.13-1.168.265-2.329.393-3.494 0 0 .008 0 .017-.008 2.781-1.017 6.437-5.743 10.445-7.326.095-.033.183-.072.279-.105 1.143-.391 2.279 2.775 3.447 2.351.751 7.95 3.431 18.323 6.293 27.671z"></path><path fill="#f4c7b1" d="M254.593 202.358v21.238c.108.037.251 0 .359 0 2.382-.035 4.873-.318 7.075-1.067.041 0 .109-.033.143-.033 3.202-1.105 5.802-3.097 6.617-6.654v-.037c-1.243-6.722-2.238-10.99-2.524-12.273h-.499v-.675c0-.426-.037-.818-.037-1.21-.034-1.281-.034-2.49-.069-3.665v-1.493c-1.031 1.28-2.064 2.349-3.13 3.166a7.002 7.002 0 0 1-1.065.783 6.035 6.035 0 0 1-.855.533h-.034c-1.746.997-3.453 1.423-5.16 1.423-.286 0-.57 0-.821-.036z"></path><path fill="#2a94f4" d="m356.657 249.012.823 1.465.025.028 6.428 11.363.993 1.749s-1.948.785-5.013 2.082c-2.79 1.179-6.494 2.728-10.508 4.466a194.76 194.76 0 0 1-3.354 1.46c-7.807 3.463-16.025 7.16-20.14 9.526-8.977 5.127-16.447 6.918-20.998 6.824-4.527-.12-14.456-26.918-16.007-33.347-1.572-6.401-7.381-18.196-11.543-29.427-1.761-4.772-1.252-8.983.256-12.326 2.006-4.532 5.788-7.461 8.123-7.929a11.058 11.058 0 0 1 2.808-.275c1.455.006 2.828.285 4.118.784 12.634 4.923 16.546 31.097 17.286 35.555.272 1.547 1.031 4.141 2.009 6.973 2.167 6.625 5.322 14.62 5.322 14.62 6.344-2.734 8.963-3.515 11.38-4.208 1.755-.513 3.41-.931 6.272-2.031.863-.32 1.786-.693 2.778-1.032a331.79 331.79 0 0 1 7.297-2.547c6.039-2.018 11.645-3.773 11.645-3.773z"></path><path fill="#a5735b" d="M255.695 198.907v3.451c-.106.036-.176.036-.284.036h-.821c-1.602-.036-3.24-.499-4.876-1.423h-.034a6.128 6.128 0 0 1-.855-.533 22.183 22.183 0 0 1-1.065-.783c-1.067-.817-2.1-1.887-3.131-3.166.034-1.387 0-2.562 0-3.38.427.5.82.999 1.243 1.424 1.175 1.211 2.315 2.173 3.488 2.848.214.142.463.285.677.388.749.392 1.459.677 2.204.855.142.07.285.07.426.108.183.034.321.034.463.072.251.035.535.071.786.105.246.037.462.07.674.07.14 0 .321 0 .463-.033.036.033.072.033.106 0h.034c.143-.002.325-.002.502-.039z"></path><path fill="#0e538c" d="M255.695 223.595v96.304l-16.615-.71-13.661-.605 1.388-16.827 1.529-18.822c2.206.928 4.697 2.029 7.082 3.098-.643-7.436-.923-14.266-.498-19.853 1.671-20.777 4.266-37.71 6.294-48.774v-.036c-.21-2.134.075-4.518.571-6.723.069-.466.178-.924.286-1.352.143-.499.245-.96.388-1.423l.323-1.066c.07-.249.178-.498.248-.713a25.17 25.17 0 0 1 .926-2.561h.069c-.284 1.282-1.282 5.551-2.525 12.273v.037c.816 3.557 3.416 5.549 6.62 6.654.034 0 .104.033.142.033 2.202.749 4.695 1.032 7.075 1.067.106-.001.252.036.358-.001z"></path><path fill="#2a94f4" d="M244.024 203.531c-.284 1.282-1.282 5.551-2.525 12.273v.037c-.106.498-.178.996-.285 1.529v.036c-2.028 11.064-4.623 27.997-6.294 48.774-.426 5.586-.145 12.417.498 19.853a346.596 346.596 0 0 0-7.082-3.098c-.959-.427-1.887-.781-2.737-1.135-2.85-1.14-4.344-1.959-5.979-2.778-.104-.284-.178-.602-.285-.887-.498-1.566-.959-3.061-1.421-4.41-1.745-5.409-3.06-8.861-3.06-8.861s-.212-1.812-.39-4.836c1.209-2.741 2.419-5.16 3.274-6.473 2.488-3.774 17.428-25.616 11.522-37.819a11.377 11.377 0 0 0-2.488-3.38 10.955 10.955 0 0 0-2.244-1.707c-2.023-1.246-10.002.164-14.555 2.121 8.254-7.865 22.279-9.343 24.84-9.164v-.073h9.211zM239.959 328.219h-22.897c.688-2.246 1.367-4.55 2-6.862 2.039-7.326 3.726-14.764 4.294-20.809 1.167.424 2.312.816 3.455 1.207 4.126 1.455 7.894 2.848 10.733 3.881.256 2.333.535 4.676.808 6.997.248 2.205.502 4.397.727 6.557.337 3.086.64 6.111.88 9.029z"></path><path fill="#f4c7b1" d="M255.695 202.358v21.238c-.106.037-.251 0-.359 0-2.38-.035-4.873-.318-7.075-1.067-.037 0-.107-.033-.142-.033-3.204-1.105-5.804-3.097-6.62-6.654v-.037c1.243-6.722 2.242-10.99 2.525-12.273h.499v-.675c0-.426.037-.818.037-1.21.034-1.281.034-2.49.069-3.665v-1.493c1.031 1.28 2.064 2.349 3.131 3.166.359.321.713.569 1.065.783.287.213.571.388.855.533h.034c1.744.997 3.457 1.423 5.16 1.423.286 0 .569 0 .821-.036z"></path><path fill="#eea886" d="M265.512 296.527c-.249 1.565-1.28 2.739-1.28 2.739s.604 2.062-.782 3.414c0 0 .462 1.956-1.352 3.237 0 0 .427 1.922-.998 2.741 0 0-3.096.392-4.23.179a728.798 728.798 0 0 1-13.768-3.274l3.023-12.702v-.034c1.317-.889 2.56-1.71 2.953-1.958.961-.571 4.235-.391 7.61.675 3.277 1.033 6.941 2.491 7.971 3.06.535.285 1.065.394.853 1.923z"></path><path fill="#2a94f4" d="m246.517 291.189-.393 1.638v.034l-3.023 12.702-.462 1.958s-1.959-.747-5.093-1.887c-2.844-1.032-6.612-2.418-10.739-3.876-1.139-.393-2.28-.785-3.449-1.209-8.077-2.778-16.617-5.659-21.242-6.726-10.068-2.349-16.759-6.119-20.031-9.284-3.235-3.166 7.721-29.563 10.961-35.327 3.202-5.764 6.969-18.357 11.561-29.42 1.956-4.698 5.191-7.436 8.573-8.858 4.556-1.958 9.323-1.532 11.346-.286a10.9 10.9 0 0 1 2.244 1.707 11.377 11.377 0 0 1 2.488 3.38c5.906 12.203-9.034 34.045-11.522 37.819-.855 1.313-2.065 3.733-3.274 6.473-2.917 6.33-6.048 14.335-6.048 14.335 6.509 2.315 8.963 3.522 11.204 4.659 1.635.819 3.129 1.638 5.979 2.778.85.354 1.778.708 2.737 1.135 2.206.928 4.697 2.029 7.082 3.098a765.253 765.253 0 0 1 11.101 5.157z"></path><path fill="#0e538c" d="m280.037 170.744-.306-13.94c-.045-2.326 0-4.63-.332-6.787-.328-2.188-.922-4.33-1.842-6.313-1.808-3.975-4.842-7.33-8.652-9.458-3.806-2.161-8.233-3.143-12.648-3.125-4.414-.018-8.85.964-12.641 3.125-3.818 2.128-6.851 5.483-8.665 9.458-.914 1.982-1.507 4.125-1.836 6.313-.331 2.18-.298 4.431-.329 6.787l-.312 13.94h-1.747l-.299-13.94c-.028-2.286-.133-4.693.175-7.124.304-2.408.895-4.81 1.872-7.069 1.892-4.557 5.427-8.42 9.704-10.863 4.283-2.481 9.228-3.599 14.079-3.624 4.854.025 9.794 1.143 14.076 3.624 4.28 2.443 7.81 6.306 9.699 10.863.976 2.259 1.574 4.661 1.884 7.069.304 2.45.203 4.815.176 7.124l-.303 13.94h-1.753z"></path><path fill="#0b4870" d="M232.123 178.313c-3.137 0-3.928-2.249-3.928-5.027v-9.013c0-2.775.791-5.029 3.928-5.029h.75v19.069h-.75z"></path><path fill="#2a94f4" d="M232.873 159.245h1.621v19.069h-1.621z"></path><path fill="#0b4870" d="M280.868 178.313c3.14 0 3.937-2.249 3.937-5.027v-9.013c0-2.775-.797-5.029-3.937-5.029h-.75v19.069h.75z"></path><path fill="#2a94f4" d="M278.496 159.245h1.622v19.069h-1.622z"></path><path fill="#cce9ff" d="M257.42 195.69v-1.749c7.236 0 21.017-10.283 21.017-15.628h1.745c0 6.766-15.244 17.377-22.762 17.377z"></path><path fill="#0b4870" d="M258.582 197.258h-2.33c-1.933 0-3.497-1.09-3.497-2.443 0-1.348 1.564-2.437 3.497-2.437h2.33c1.931 0 3.496 1.09 3.496 2.437-.001 1.353-1.565 2.443-3.496 2.443z"></path><path fill="#2a94f4" d="M195.023 101.446v13.813l-.083 18.751-.111 22.648-.07 16.708-16.645-16.772-5.079-.018-67.353-.315c-11.379-2.22-19.966-12.234-19.966-24.241v-30.574c0-12.683 9.59-23.158 21.908-24.537l67.512.311c11.334 2.237 19.887 12.232 19.887 24.226z"></path><path fill="#cce9ff" d="M174.026 102.109a3.627 3.627 0 0 1-3.624 3.63h-62.085a3.628 3.628 0 0 1-3.628-3.63 3.627 3.627 0 0 1 3.628-3.627h62.085c2 0 3.624 1.623 3.624 3.627zM174.026 115.617a3.633 3.633 0 0 1-3.624 3.631h-62.085a3.635 3.635 0 0 1-3.628-3.631 3.629 3.629 0 0 1 3.628-3.63h62.085a3.627 3.627 0 0 1 3.624 3.63zM155.059 129.124c0 1.99-1.63 3.62-3.634 3.62h-43.112a3.62 3.62 0 0 1-3.616-3.62c0-1.003.395-1.905 1.055-2.564a3.605 3.605 0 0 1 2.561-1.072h43.112a3.638 3.638 0 0 1 3.634 3.636z" opacity=".8"></path></svg>